<svg xmlns="http://www.w3.org/2000/svg" viewBox="0 0 425.2 71.6"><path d="M51.1 49.3V57h7.7v-7.7h-7.7zm49.5-34.5h9.2v-3.3H96.6v17h8.1c4 0 6.5-1.6 6.5-5.2 0-5.4-5.1-5.6-6.5-5.6h-4.1v-2.9zm295.8-3.3L390 28.3l-7-9 6.8-7.8h-4.7l-5.9 7.1v-7.1h-4v17h4v-8.3l6 8.3h8.9l1.1-3.2h6.2l1.1 3.2h4.2l-6.4-17h-3.9zm-.3 10.9l2.3-6.5 2.2 6.5h-4.5zm-35.7.1v-11h-4v17h4l6.7-11.1v11.1h4.1v-17h-4.1l-6.7 11zm-23 .1c.3 5.6 4.3 6.3 7.8 6.3 3.7 0 7.8-.8 7.8-5.1 0-2.7-1.3-3.8-3.8-4.3v-.1c1.3-.2 3.3-1 3.3-3.7 0-3.6-3.4-4.9-7.2-4.9-4.4 0-7.2 1.4-7.5 6h3.9c.2-2.7 2.3-2.7 3.1-2.7.5 0 3.3-.1 3.3 2 0 1.6-1.6 1.9-2.7 1.9h-2v3.1h2.4c.9 0 2.9.2 2.9 2 0 .9-.6 2.3-3.4 2.3-2.9 0-3.9-1.3-4-3.1h-3.9v.3zm-13.8-.1v-11h-4v17h4l6.7-11.1v11.1h4.1v-17h-4.1l-6.7 11zm-19.5 6.6h4v-2.4h.6c6.6 0 8-4.2 8-6.9s-1.4-6.9-8-6.9h-.6v-2.4h-4v2.4h-.7c-6.5 0-8 4.2-8 6.9s1.5 6.9 8 6.9h.7v2.4zm.3-5.6h-.3c-3.8 0-4.5-2-4.5-3.7 0-3.8 3.8-3.7 4.5-3.7h.3v7.4zm3.3 0v-7.4h.3c.9 0 4.5-.1 4.5 3.7 0 2.7-1.7 3.7-4.5 3.7h-.3zm-23 5.5c5.9 0 8.6-3.8 8.6-9s-2.7-9-8.6-9c-6.7 0-8.6 5.1-8.6 9s1.9 9 8.6 9zm0-3.3c-2.3 0-4.3-1.3-4.3-5.7 0-3.8 1.6-5.6 4.3-5.6 4.1 0 4.2 4.2 4.2 5.6.1 1.4-.1 5.7-4.2 5.7zm-20.1-7.5v-3.4h9.4v-3.3h-13.5v17h13.7v-3.3h-9.6v-3.8h8.3v-3.1h-8.3v-.1zm-13.8-3.4h7.4v-3.3h-11.4v17h4.1V14.8h-.1zm-16.4 3.4v-3.4h9.4v-3.3h-13.4v17h13.7v-3.3h-9.7v-3.8h8.3v-3.1h-8.3v-.1zm-15.6-3.4v13.7h4.1V14.8h5.1v-3.3h-14.3v3.3h5.1zm-19.1 14.3h4v-2.4h.6c6.6 0 8-4.2 8-6.9s-1.4-6.9-8-6.9h-.6v-2.4h-4v2.4h-.7c-6.5 0-8 4.2-8 6.9s1.5 6.9 8 6.9h.7v2.4zm.3-5.6h-.3c-3.8 0-4.5-2-4.5-3.7 0-3.8 3.7-3.7 4.5-3.7h.3v7.4zm3.3 0v-7.4h.3c.9 0 4.5-.1 4.5 3.7 0 2.7-1.7 3.7-4.5 3.7h-.3zm-23.5-5.3v-3.4h9.4v-3.3h-13.5v17h13.7v-3.3h-9.6v-3.8h8.3v-3.1h-8.3v-.1zm-18.2 2.9h6.2v7.4h4v-17h-4v6.3h-6.2v-6.3h-4v17h4v-7.4zm-26.7 4.1V11.5h-4.1v17h22.7v-17h-4v13.7h-5.3V11.5h-4v13.7h-5.3zm-16.3-13.7l-6.3 17h4.2l1.1-3.2h6.2l1.1 3.2h4.2l-6.4-17h-4.1zm-.2 10.9l2.3-6.5 2.2 6.5h-4.5zm-17.8-1.3h3.3c1 0 3 .1 3 2.1 0 1.6-1.4 2-3.1 2h-3.2v-4.1zM58.8 39.8H57c.9-.7 1.4-1.5 1.8-2.3v2.3zm3-7.8l-2 3.7v4.1H67V32h-5.2zm.5-1l4.7-8.8V31h-4.7zm-3.5 9.5v7.9h-7.7v-7.9h7.7zm-33.1 0h7.2v7.9h-4.5c-1.2-2.4-2.1-5.1-2.7-7.9zm41.3 0v7.9h-7.3v-7.9H67zm0 8.8V57h-7.3v-7.7H67zm0 8.7v2.9c-2.3 1.2-4.6 2.1-7.3 2.6V58H67zm-8.2 5.6c-1.5.3-3.2.4-4.8.4-1 0-1.9 0-2.9-.1V58h7.7v5.6zm-8.5.2c-2.7-.4-5.3-1.1-7.7-2.1V58h7.7v5.8zm-8.7-2.6c-1.9-.9-3.7-2-5.3-3.3h5.3v3.3zM35.1 57c-.4-.4-.9-.8-1.3-1.2v-6.5h7.7V57h-6.4zm-2.2-2.1c-1.6-1.7-2.9-3.5-4-5.6h4v5.6zm9.6-5.6V57h7.7v-7.7h-7.7zm0-8.8v7.9h7.7v-7.9h-7.7zm-8.6 0v7.9h7.7v-7.9h-7.7z" fill="#134093"/><path d="M154 45.9h1.6l3.8 11.2h-1.5l-1.9-6.2c-.4-1.2-.8-2.5-1.1-3.8h-.1c-.3 1.3-.7 2.5-1.1 3.8l-2 6.2h-1.4l3.7-11.2zm-1.8 6.6h5.1v1.1h-5.1v-1.1zm8.9-6.6h1.4v4.7h2.7l4.1 6.4h-1.5l-3.4-5.3h-1.9V57h-1.4V45.9zm3.2 5l1.7-3.1c.9-1.7 1.5-2.1 2.5-2.1.2 0 .4 0 .6.1l-.2 1.3c-.1 0-.3-.1-.4-.1-.5 0-.8.2-1.5 1.4l-1.5 2.7-1.2-.2zm6.9-5h1.4v10h4.9v-10h1.4V57h-7.7V45.9zm7.5 11.1h-.6v-1.2h2v.8l-.2 3.5h-1.2V57zm3.4-11.1h1.4v5.8c0 1.2-.1 2.4-.2 3.5h.1l1.2-2.3 4.1-7h1.5V57h-1.4v-5.8c0-1.2.1-2.4.2-3.5h-.1l-1.2 2.3-4.1 7h-1.5V45.9zm10.4 5.5c0-3.6 2-5.7 4.8-5.7s4.8 2.2 4.8 5.7c0 3.6-2 5.8-4.8 5.8s-4.8-2.2-4.8-5.8zm8.1 0c0-2.8-1.3-4.5-3.3-4.5s-3.3 1.7-3.3 4.5 1.3 4.6 3.3 4.6 3.3-1.8 3.3-4.6zm3.8-5.5h1.4v4.7h5.2v-4.7h1.4V57H211v-5.2h-5.2V57h-1.4V45.9zm10.8 0h6.4v1.2h-5v3.5h4.2v1.2h-4.2v4.1h5.2V57h-6.6V45.9zm8.9 0h3.2c2.5 0 4.2.8 4.2 3.3 0 2.3-1.7 3.4-4.1 3.4h-1.8V57h-1.4l-.1-11.1zm3 5.5c2 0 2.9-.7 2.9-2.3s-1-2.1-2.9-2.1h-1.6v4.4h1.6zm6.4-5.5h1.4v4.7h5.2v-4.7h1.4V57h-1.4v-5.2H235V57h-1.4V45.9h-.1zm10.4 5.5c0-3.6 2-5.7 4.8-5.7s4.8 2.2 4.8 5.7c0 3.6-2 5.8-4.8 5.8s-4.8-2.2-4.8-5.8zm8.1 0c0-2.8-1.3-4.5-3.3-4.5s-3.3 1.7-3.3 4.5 1.3 4.6 3.3 4.6 3.3-1.8 3.3-4.6zm3.8-5.5h6.4v1.2h-5v3.5h4.2v1.2h-4.2v4.1h5.2V57h-6.6V45.9zm12.1 5.5c0-3.6 2-5.7 4.8-5.7s4.8 2.2 4.8 5.7c0 3.6-2 5.8-4.8 5.8-2.9 0-4.8-2.2-4.8-5.8zm8 0c0-2.8-1.3-4.5-3.3-4.5s-3.3 1.7-3.3 4.5 1.3 4.6 3.3 4.6 3.3-1.8 3.3-4.6zm3.8-5.5h6.9v1.2h-5.5v3.5h2.1c2.4 0 4.1.8 4.1 3.1s-1.6 3.4-4 3.4h-3.6V45.9zm3.4 10c1.9 0 2.8-.7 2.8-2.2 0-1.4-1-2-2.9-2h-1.9v4.2h2zm6.4-10h1.4v10h3.7v-10h1.4v10h3.7v-10h1.4V57h-11.7V45.9h.1zM301 57h-.6v-1.2h2v.8l-.2 3.5H301V57zm3.3-11.1h6.4v1.2h-5v3.5h4.2v1.2h-4.2v4.1h5.2V57h-6.6V45.9zm8 5.5c0-3.6 2.1-5.8 5-5.8 1.4 0 2.4.7 3.1 1.4l-.8.9c-.6-.6-1.3-1.1-2.3-1.1-2.1 0-3.5 1.7-3.5 4.5s1.3 4.6 3.5 4.6c1.1 0 1.9-.5 2.6-1.3l.8.9c-.9 1-2 1.6-3.4 1.6-2.9.1-5-2-5-5.7zm12.9-4.3h-3.4v-1.2h8.2v1.2h-3.4v10h-1.4v-10zm6.8-1.2h3.3c2.3 0 3.8.8 3.8 2.7 0 1.1-.6 2.1-1.6 2.4v.1c1.3.3 2.3 1.1 2.3 2.7 0 2.2-1.7 3.3-4.2 3.3H332V45.9zm3.1 4.7c1.9 0 2.7-.7 2.7-1.8 0-1.3-.9-1.8-2.6-1.8h-1.7v3.6h1.6zm.3 5.3c1.9 0 3-.7 3-2.2 0-1.4-1.1-2-3-2h-1.9v4.2h1.9zm6.1-4.5c0-3.6 2-5.7 4.8-5.7s4.8 2.2 4.8 5.7c0 3.6-2 5.8-4.8 5.8s-4.8-2.2-4.8-5.8zm8.1 0c0-2.8-1.3-4.5-3.3-4.5s-3.3 1.7-3.3 4.5 1.3 4.6 3.3 4.6c2 0 3.3-1.8 3.3-4.6z"/></svg>