<?xml version="1.0" encoding="utf-8"?>
<!-- Generator: Adobe Illustrator 22.1.0, SVG Export Plug-In . SVG Version: 6.00 Build 0)  -->
<svg version="1.1" id="_x31_" xmlns="http://www.w3.org/2000/svg" xmlns:xlink="http://www.w3.org/1999/xlink" x="0px" y="0px"
	 viewBox="0 0 425.2 71.6" style="enable-background:new 0 0 425.2 71.6;" xml:space="preserve">
<style type="text/css">
	.st0{fill:#134093;}
	.st1{fill:#1A1A18;}
</style>
<path class="st0" d="M51.1,49.3V57h7.7v-7.7H51.1L51.1,49.3z M100.6,14.8h9.2v-3.3H96.6v17h8.1c4,0,6.5-1.6,6.5-5.2
	c0-5.4-5.1-5.6-6.5-5.6h-4.1V14.8L100.6,14.8z M396.4,11.5L390,28.3l-7-9l6.8-7.8h-4.7l-5.9,7.1l0,0v-7.1h-4v17h4v-8.3l0,0l6,8.3
	h4.7h0.2h4l1.1-3.2h6.2l1.1,3.2h4.2l-6.4-17L396.4,11.5L396.4,11.5z M396.1,22.4l2.3-6.5l2.2,6.5H396.1L396.1,22.4z M360.4,22.5v-11
	h-4v17h4l6.7-11.1v11.1h4.1v-17h-4.1L360.4,22.5L360.4,22.5z M337.4,22.6c0.3,5.6,4.3,6.3,7.8,6.3c3.7,0,7.8-0.8,7.8-5.1
	c0-2.7-1.3-3.8-3.8-4.3v-0.1c1.3-0.2,3.3-1,3.3-3.7c0-3.6-3.4-4.9-7.2-4.9c-4.4,0-7.2,1.4-7.5,6h3.9c0.2-2.7,2.3-2.7,3.1-2.7
	c0.5,0,3.3-0.1,3.3,2c0,1.6-1.6,1.9-2.7,1.9h-2v3.1h2.4c0.9,0,2.9,0.2,2.9,2c0,0.9-0.6,2.3-3.4,2.3c-2.9,0-3.9-1.3-4-3.1h-3.9V22.6z
	 M323.6,22.5v-11h-4v17h4l6.7-11.1v11.1h4.1v-17h-4.1L323.6,22.5L323.6,22.5z M304.1,29.1h4v-2.4h0.6c6.6,0,8-4.2,8-6.9
	s-1.4-6.9-8-6.9h-0.6v-2.4h-4v2.4h-0.7c-6.5,0-8,4.2-8,6.9s1.5,6.9,8,6.9h0.7V29.1L304.1,29.1z M304.4,23.5h-0.3
	c-3.8,0-4.5-2-4.5-3.7c0-3.8,3.8-3.7,4.5-3.7h0.3V23.5L304.4,23.5z M307.7,23.5v-7.4h0.3c0.9,0,4.5-0.1,4.5,3.7
	c0,2.7-1.7,3.7-4.5,3.7L307.7,23.5L307.7,23.5z M284.7,29c5.9,0,8.6-3.8,8.6-9s-2.7-9-8.6-9c-6.7,0-8.6,5.1-8.6,9S278,29,284.7,29
	L284.7,29z M284.7,25.7c-2.3,0-4.3-1.3-4.3-5.7c0-3.8,1.6-5.6,4.3-5.6c4.1,0,4.2,4.2,4.2,5.6C289,21.4,288.8,25.7,284.7,25.7
	L284.7,25.7z M264.6,18.2v-3.4h9.4v-3.3h-13.5v17h13.7v-3.3h-9.6v-3.8h8.3v-3.1h-8.3V18.2z M250.8,14.8h7.4v-3.3h-11.4v17h4.1V14.8
	H250.8z M234.4,18.2v-3.4h9.4v-3.3h-13.4v17h13.7v-3.3h-9.7v-3.8h8.3v-3.1h-8.3V18.2z M218.8,14.8v13.7h4.1V14.8h5.1v-3.3h-14.3v3.3
	H218.8L218.8,14.8z M199.7,29.1h4v-2.4h0.6c6.6,0,8-4.2,8-6.9s-1.4-6.9-8-6.9h-0.6v-2.4h-4v2.4H199c-6.5,0-8,4.2-8,6.9
	s1.5,6.9,8,6.9h0.7V29.1L199.7,29.1z M200,23.5h-0.3c-3.8,0-4.5-2-4.5-3.7c0-3.8,3.7-3.7,4.5-3.7h0.3V23.5L200,23.5z M203.3,23.5
	v-7.4h0.3c0.9,0,4.5-0.1,4.5,3.7c0,2.7-1.7,3.7-4.5,3.7L203.3,23.5L203.3,23.5z M179.8,18.2v-3.4h9.4v-3.3h-13.5v17h13.7v-3.3h-9.6
	v-3.8h8.3v-3.1h-8.3V18.2z M161.6,21.1h6.2v7.4h4v-17h-4v6.3h-6.2v-6.3h-4v17h4V21.1L161.6,21.1z M134.9,25.2V11.5h-4.1v17h22.7v-17
	h-4v13.7h-5.3V11.5h-4v13.7H134.9L134.9,25.2z M118.6,11.5l-6.3,17h4.2l1.1-3.2h6.2l1.1,3.2h4.2l-6.4-17H118.6L118.6,11.5z
	 M118.4,22.4l2.3-6.5l2.2,6.5H118.4L118.4,22.4z M100.6,21.1h3.3c1,0,3,0.1,3,2.1c0,1.6-1.4,2-3.1,2h-3.2L100.6,21.1L100.6,21.1z
	 M58.8,39.8H57c0.9-0.7,1.4-1.5,1.8-2.3V39.8L58.8,39.8z M61.8,32l-2,3.7v4.1H67V32H61.8L61.8,32z M62.3,31l4.7-8.8V31H62.3L62.3,31
	z M58.8,40.5v7.9h-7.7v-7.9H58.8L58.8,40.5z M25.7,40.5h7.2v7.9h-4.5C27.2,46,26.3,43.3,25.7,40.5L25.7,40.5z M67,40.5v7.9h-7.3
	v-7.9H67L67,40.5z M67,49.3V57h-7.3v-7.7H67L67,49.3z M67,58v2.9c-2.3,1.2-4.6,2.1-7.3,2.6V58H67L67,58z M58.8,63.6
	C57.3,63.9,55.6,64,54,64c-1,0-1.9,0-2.9-0.1V58h7.7V63.6L58.8,63.6z M50.3,63.8c-2.7-0.4-5.3-1.1-7.7-2.1V58h7.7V63.8L50.3,63.8z
	 M41.6,61.2c-1.9-0.9-3.7-2-5.3-3.3h5.3V61.2L41.6,61.2z M35.1,57c-0.4-0.4-0.9-0.8-1.3-1.2v-6.5h7.7V57H35.1L35.1,57z M32.9,54.9
	c-1.6-1.7-2.9-3.5-4-5.6h4V54.9L32.9,54.9z M42.5,49.3V57h7.7v-7.7H42.5L42.5,49.3z M42.5,40.5v7.9h7.7v-7.9H42.5L42.5,40.5z
	 M33.9,40.5v7.9h7.7v-7.9H33.9z"/>
<path class="st1" d="M89.8,33c-1.5,0-2.8,0.9-3.6,2l-9.9,16.8c-0.2,0.2-0.4,0.3-0.6,0.3c-0.4,0-0.7-0.2-0.7-0.6V6.8
	C68.6,2.4,61.6,0,53.8,0c-3,0-5.9,0.4-8.7,1.1C30.2,4.7,18.9,17.4,17.3,33H0v5.9h17.3c1.4,15.2,13,28.3,27.7,31.8
	c2.4,0.6,4.8,0.9,7.3,0.9c18,0.3,23.9-8,26.8-13.2l10.3-18.2c0.6-1.1,2.6-1.3,4.1-1.3h331.7V33H89.8z M45,7.8
	c2.8-0.8,5.7-1.3,8.7-1.3c4.2,0,8,0.8,11.5,2.3l1,0.4L53.6,31.6C52.9,33,51.5,33,49.8,33h-26C25.3,21,33.8,11.2,45,7.8z M68.6,61.6
	c-1.6,0.7-3,4.1-16.2,4.1c-2.5,0-4.9-0.4-7.3-1.2C34.5,61.2,25.3,51,23.8,38.9h29.8c1.3,0,2.4-0.2,3-1.2l9-16.1
	c0.3-0.5,0.8-0.9,1.4-0.9c0.9,0,1.6,0.7,1.6,1.6V61.6z"/>
<path class="st1" d="M53.8,8.3c-3,0-6,0.4-8.7,1.3c-10,3-17.5,11.2-19.2,21.8H50c0.9,0,1.8,0.1,2.2-0.7L63.7,10
	C60.6,8.9,57.3,8.3,53.8,8.3z"/>
<g>
	<path d="M154,45.9h1.6l3.8,11.2h-1.5l-1.9-6.2c-0.4-1.2-0.8-2.5-1.1-3.8h-0.1c-0.3,1.3-0.7,2.5-1.1,3.8l-2,6.2h-1.4L154,45.9z
		 M152.2,52.5h5.1v1.1h-5.1V52.5z"/>
	<path d="M161.1,45.9h1.4v4.7h2.7l4.1,6.4h-1.5l-3.4-5.3h-1.9V57h-1.4L161.1,45.9L161.1,45.9z M164.3,50.9l1.7-3.1
		c0.9-1.7,1.5-2.1,2.5-2.1c0.2,0,0.4,0,0.6,0.1l-0.2,1.3c-0.1,0-0.3-0.1-0.4-0.1c-0.5,0-0.8,0.2-1.5,1.4l-1.5,2.7L164.3,50.9z"/>
	<path d="M171.2,45.9h1.4v10h4.9v-10h1.4V57h-7.7L171.2,45.9L171.2,45.9z M178.7,57h-0.6v-1.2h2v0.8l-0.2,3.5h-1.2V57z"/>
	<path d="M182.1,45.9h1.4v5.8c0,1.2-0.1,2.4-0.2,3.5h0.1l1.2-2.3l4.1-7h1.5V57h-1.4v-5.8c0-1.2,0.1-2.4,0.2-3.5h-0.1l-1.2,2.3
		l-4.1,7h-1.5V45.9z"/>
	<path d="M192.5,51.4c0-3.6,2-5.7,4.8-5.7s4.8,2.2,4.8,5.7c0,3.6-2,5.8-4.8,5.8S192.5,55,192.5,51.4z M200.6,51.4
		c0-2.8-1.3-4.5-3.3-4.5s-3.3,1.7-3.3,4.5s1.3,4.6,3.3,4.6S200.6,54.2,200.6,51.4z"/>
	<path d="M204.4,45.9h1.4v4.7h5.2v-4.7h1.4V57H211v-5.2h-5.2V57h-1.4L204.4,45.9L204.4,45.9z"/>
	<path d="M215.2,45.9h6.4v1.2h-5v3.5h4.2v1.2h-4.2v4.1h5.2V57h-6.6L215.2,45.9L215.2,45.9z"/>
	<path d="M224.1,45.9h3.2c2.5,0,4.2,0.8,4.2,3.3c0,2.3-1.7,3.4-4.1,3.4h-1.8V57h-1.4L224.1,45.9L224.1,45.9z M227.1,51.4
		c2,0,2.9-0.7,2.9-2.3s-1-2.1-2.9-2.1h-1.6v4.4C225.5,51.4,227.1,51.4,227.1,51.4z"/>
	<path d="M233.5,45.9h1.4v4.7h5.2v-4.7h1.4V57h-1.4v-5.2H235V57h-1.4V45.9H233.5z"/>
	<path d="M243.9,51.4c0-3.6,2-5.7,4.8-5.7s4.8,2.2,4.8,5.7c0,3.6-2,5.8-4.8,5.8S243.9,55,243.9,51.4z M252,51.4
		c0-2.8-1.3-4.5-3.3-4.5s-3.3,1.7-3.3,4.5s1.3,4.6,3.3,4.6S252,54.2,252,51.4z"/>
	<path d="M255.8,45.9h6.4v1.2h-5v3.5h4.2v1.2h-4.2v4.1h5.2V57h-6.6L255.8,45.9L255.8,45.9z"/>
	<path d="M267.9,51.4c0-3.6,2-5.7,4.8-5.7s4.8,2.2,4.8,5.7c0,3.6-2,5.8-4.8,5.8C269.8,57.2,267.9,55,267.9,51.4z M275.9,51.4
		c0-2.8-1.3-4.5-3.3-4.5s-3.3,1.7-3.3,4.5s1.3,4.6,3.3,4.6S275.9,54.2,275.9,51.4z"/>
	<path d="M279.7,45.9h6.9v1.2h-5.5v3.5h2.1c2.4,0,4.1,0.8,4.1,3.1s-1.6,3.4-4,3.4h-3.6V45.9z M283.1,55.9c1.9,0,2.8-0.7,2.8-2.2
		c0-1.4-1-2-2.9-2h-1.9v4.2H283.1z"/>
	<path d="M289.5,45.9h1.4v10h3.7v-10h1.4v10h3.7v-10h1.4V57h-11.7V45.9H289.5z M301,57h-0.6v-1.2h2v0.8l-0.2,3.5H301V57z"/>
	<path d="M304.3,45.9h6.4v1.2h-5v3.5h4.2v1.2h-4.2v4.1h5.2V57h-6.6V45.9z"/>
	<path d="M312.3,51.4c0-3.6,2.1-5.8,5-5.8c1.4,0,2.4,0.7,3.1,1.4l-0.8,0.9c-0.6-0.6-1.3-1.1-2.3-1.1c-2.1,0-3.5,1.7-3.5,4.5
		s1.3,4.6,3.5,4.6c1.1,0,1.9-0.5,2.6-1.3l0.8,0.9c-0.9,1-2,1.6-3.4,1.6C314.4,57.2,312.3,55.1,312.3,51.4z"/>
	<path d="M325.2,47.1h-3.4v-1.2h8.2v1.2h-3.4v10h-1.4L325.2,47.1L325.2,47.1z"/>
	<path d="M332,45.9h3.3c2.3,0,3.8,0.8,3.8,2.7c0,1.1-0.6,2.1-1.6,2.4v0.1c1.3,0.3,2.3,1.1,2.3,2.7c0,2.2-1.7,3.3-4.2,3.3H332V45.9z
		 M335.1,50.6c1.9,0,2.7-0.7,2.7-1.8c0-1.3-0.9-1.8-2.6-1.8h-1.7v3.6H335.1z M335.4,55.9c1.9,0,3-0.7,3-2.2c0-1.4-1.1-2-3-2h-1.9
		v4.2H335.4z"/>
	<path d="M341.5,51.4c0-3.6,2-5.7,4.8-5.7s4.8,2.2,4.8,5.7c0,3.6-2,5.8-4.8,5.8S341.5,55,341.5,51.4z M349.6,51.4
		c0-2.8-1.3-4.5-3.3-4.5s-3.3,1.7-3.3,4.5s1.3,4.6,3.3,4.6C348.3,56,349.6,54.2,349.6,51.4z"/>
</g>
</svg>
