<svg xmlns="http://www.w3.org/2000/svg" viewBox="0 0 165 48.976"><path fill="#0D0F0F" d="M73.972 16.327l.008 13.53 6.068-13.628h3.49v16.118l-2.347.035v-10.53l-.001-2.543-5.98 13.043-3.804-.005V16.326l2.566.001zm28.203 0l.01 13.53 6.065-13.628h3.491v16.118l-2.346.035v-10.53l-.002-2.543-5.979 13.043-3.806-.005V16.326l2.567.001z"/><path fill="#181717" d="M38.159 0L24.185 47.978h2.489L40.648 0h-2.489m7.351 0L31.536 47.978h2.493L48.001 0H45.51M30.804 0L16.832 47.978h2.49L33.297 0h-2.493"/><path fill="#F6CE45" d="M0 0h25.943L11.971 47.978H0zm48.247 47.978V15.816l-9.416 32.162z"/><path fill="#0D0F0F" d="M95.784 16.229v2.038l-7.683.003v4.18l4.727-.015c1.444 0 2.512.383 3.204 1.143.689.762 1.037 2.016 1.037 3.766 0 1.748-.362 3.013-1.085 3.797-.673.74-1.723 1.109-3.156 1.109h-7.082V16.229h10.038zm-7.682 8.507l-.05 5.511h4.079c.539 0 1.809.103 2.368-.888.146-.258.399-1.298.399-1.892 0-1.295-.324-2.135-.688-2.409-.529-.399-1.587-.323-2.137-.323h-3.971zm28.527-8.507v6.229h6.54v-6.229h2.305V32.25h-2.305v-7.488h-6.54v7.515l-2.378-.026V16.229h2.378zm17.593 2.26v13.76h-2.271V18.516h-4.572v-2.288h11.387v2.261h-4.544zm20.366-2.26v6.229h1.664l4.088-6.229h3.361l-5.681 7.194 6.038 8.827h-3.426l-4.307-7.187h-1.738v7.187h-2.259V16.229h2.26z"/><path fill="#0E0F10" d="M143.77 24.767h-1.06c.014.852.018 3.365.109 3.837.095.479.442 1.679 1.524 1.679h6.082v1.966h-6.941c-1.17 0-1.984-.38-2.438-1.149-.452-.763-.679-1.919-.679-3.464v-6.795c0-1.547.227-2.696.679-3.466.453-.763 1.268-1.146 2.438-1.146h6.941v2.04h-6.323c-.647 0-1.192.792-1.295 1.271-.099.49-.084 2.15-.098 2.927h6.662v2.301h-5.601zm-77.192 4.607c-.368.558-.576.902-1.579.902h-2.643c-1 0-1.688-.267-2.076-.808-.388-.536-.578-1.651-.578-2.737v-4.78c0-1.084.19-2.197.578-2.736.388-.536 1.077-.806 2.076-.806h2.643c1.003 0 1.287.353 1.656.909.233.354.345 1.005.373 1.568h2.17c0-1.502-.26-2.649-.797-3.457-.531-.804-1.219-1.2-2.663-1.2h-4.753c-1.438 0-2.432.391-2.99 1.161-.562.778-.836 1.942-.836 3.511v6.885c0 1.564.274 2.734.836 3.511.558.778 1.552 1.16 2.99 1.16h4.753c1.444 0 2.132-.399 2.663-1.203.537-.803.797-1.945.797-3.456h-2.182c-.001.528-.203 1.225-.438 1.576z"/><path fill="#0D0F0F" d="M57.119 44.272c0-1.361.146-2.251.437-2.669.291-.42.886-.63 1.786-.63.896 0 1.485.208 1.769.625.284.416.426 1.307.426 2.674 0 1.355-.142 2.242-.429 2.661-.287.419-.879.629-1.78.629-.894 0-1.483-.204-1.765-.61-.295-.426-.444-1.318-.444-2.68zm.584 0c0 1.149.094 1.879.281 2.193.188.312.638.468 1.35.468.709 0 1.155-.156 1.34-.468.187-.314.278-1.044.278-2.193 0-1.161-.091-1.896-.271-2.205-.18-.311-.628-.464-1.347-.464-.716 0-1.167.154-1.354.468-.185.313-.277 1.049-.277 2.201zm5.196-3.238h3.48v.629h-2.896v2.231h1.757c.581 0 .987.124 1.215.378.23.253.345.711.345 1.379 0 .659-.117 1.132-.354 1.417-.237.283-.635.426-1.192.426h-2.355v-6.46zm.584 3.487v2.344h1.729c.405 0 .675-.096.816-.284.126-.167.19-.477.19-.93 0-.477-.073-.785-.215-.923-.144-.137-.433-.207-.869-.207h-1.651zm5.274-.626h2.679v.627h-2.679v2.344h2.791v.629h-3.375v-6.46h3.39v.629h-2.805v2.231zm7.58 1.446h.569c0 .85-.143 1.433-.429 1.747-.286.317-.838.475-1.66.475-.821 0-1.369-.201-1.645-.603-.306-.441-.458-1.332-.458-2.67 0-1.331.151-2.224.45-2.68.282-.424.832-.637 1.653-.637.801 0 1.348.17 1.64.509.252.298.378.832.378 1.602h-.568c-.052-.604-.153-.991-.304-1.163-.182-.213-.565-.317-1.146-.317-.609 0-1.015.171-1.216.516-.201.344-.301 1.068-.301 2.17 0 1.096.098 1.813.298 2.144.199.335.605.5 1.22.5.614 0 1.021-.105 1.22-.318.2-.212.299-.637.299-1.275zm1.73-4.307h4.246v6.46h-.584v-5.831h-3.081v5.831h-.582v-6.46zm6.308 2.861h2.679v.627h-2.679v2.344h2.79v.629h-3.374v-6.46h3.389v.629h-2.805v2.231zm4.027-2.861h.586v1.642c0 .57.106.938.322 1.104.163.127.507.191 1.027.191.421 0 .724-.01.906-.025.184-.019.363-.05.541-.096v-2.816h.584v6.46h-.584v-3.032a3.48 3.48 0 01-.717.107c-.29.021-.582.031-.871.031-.714 0-1.19-.137-1.431-.411-.243-.273-.364-.82-.364-1.645v-1.51zm6.028 0v5.969l2.995-5.969h.936v6.46h-.583v-5.908l-3.003 5.908h-.929v-6.46h.584zm5.405 6.46v-6.46h2.541c.458 0 .796.123 1.009.365.213.246.319.653.319 1.224 0 .426-.033.731-.098.916a.966.966 0 01-.556.57c.327.107.548.284.661.524.097.207.146.537.146.99 0 .616-.096 1.071-.289 1.37-.215.334-.563.5-1.046.5h-2.687zm.585-5.831v2.231h1.675c.388 0 .656-.087.805-.255.147-.171.223-.486.223-.948 0-.396-.058-.67-.17-.813-.113-.144-.325-.215-.64-.215h-1.893zm0 2.858v2.344h1.625c.483 0 .8-.063.949-.19.188-.153.281-.486.281-.997 0-.507-.067-.83-.205-.975-.109-.121-.37-.182-.779-.182h-1.871zm4.459 2.973l1.919-6.46h.852l1.963 6.46h-.627l-.394-1.335h-2.659l-.42 1.335h-.634zm3.522-1.965l-1.167-3.962-1.159 3.962h2.326zm5.654-.619h-1.623l-1.183 2.584h-.71l1.246-2.671a1.267 1.267 0 01-.83-.577c-.221-.335-.332-.775-.332-1.32 0-.657.141-1.137.42-1.438.278-.302.698-.453 1.261-.453h2.335v6.46h-.584V44.91zm0-.628v-2.619h-1.87c-.36 0-.615.114-.759.342-.146.228-.219.579-.219 1.058 0 .812.42 1.22 1.259 1.22h1.589zm4.633-3.248h3.713v6.46h-.583v-5.831h-2.545v3.942c0 .649-.071 1.118-.212 1.405-.154.322-.414.483-.779.483h-.373v-.629h.141c.238 0 .4-.069.484-.206.103-.168.154-.492.154-.977v-4.647zm5.773 0v5.969l2.997-5.969h.936v6.46h-.585v-5.908l-3.003 5.908h-.928v-6.46h.583zm5.465 5.831c.192-.362.329-.742.411-1.143.081-.4.124-.853.124-1.358v-3.33h3.578v5.831h.38v2.11h-.533v-1.481h-3.749v1.481h-.533v-2.11h.322zm3.53-5.202h-2.412v2.612c0 .64-.033 1.142-.101 1.506a4.523 4.523 0 01-.355 1.084h2.868v-5.202zm2.713 2.232h2.681v.627h-2.681v2.344h2.793v.629h-3.375v-6.46h3.388v.629h-2.806v2.231zm4.685 1.077v2.522h-.584v-6.46h2.51c.507 0 .864.143 1.078.432.209.287.315.755.315 1.407 0 .794-.123 1.342-.369 1.646-.248.301-.708.453-1.383.453h-1.567zm0-3.309v2.678h1.398c.498 0 .837-.084 1.021-.249.21-.196.314-.571.314-1.125 0-.483-.053-.814-.162-.992-.127-.208-.37-.312-.73-.312h-1.841zm8.072 3.678h.569c0 .85-.143 1.433-.429 1.747-.286.317-.84.475-1.66.475-.819 0-1.369-.201-1.644-.603-.307-.441-.458-1.332-.458-2.67 0-1.331.15-2.224.45-2.68.28-.424.832-.637 1.651-.637.803 0 1.349.17 1.64.509.254.298.38.832.38 1.602h-.569c-.053-.604-.153-.991-.304-1.163-.182-.213-.563-.317-1.146-.317-.608 0-1.016.171-1.216.516-.202.345-.303 1.068-.303 2.171 0 1.096.1 1.813.3 2.144.199.335.605.5 1.219.5.616 0 1.021-.105 1.221-.318.198-.213.299-.638.299-1.276zm3.63-3.678v5.831h-.586v-5.831h-1.701v-.629h3.988v.629h-1.701zm2.818 5.831v-6.46h2.538c.46 0 .795.123 1.01.365.214.246.319.653.319 1.224 0 .426-.032.731-.1.916a.963.963 0 01-.554.57c.326.107.548.284.661.524.098.207.147.537.147.99 0 .616-.098 1.071-.288 1.37-.216.334-.566.5-1.05.5h-2.683zm.583-5.831v2.231h1.674c.389 0 .658-.087.807-.255.146-.171.22-.486.22-.948 0-.396-.055-.67-.17-.813-.111-.144-.322-.215-.638-.215h-1.893zm0 2.858v2.344h1.624c.483 0 .8-.063.949-.19.188-.153.282-.486.282-.997 0-.507-.068-.83-.204-.975-.112-.121-.373-.182-.78-.182h-1.871zm4.628-.249c0-1.361.145-2.251.435-2.669.29-.42.887-.63 1.786-.63.896 0 1.485.208 1.769.625.285.416.426 1.307.426 2.674 0 1.355-.143 2.242-.429 2.661-.284.419-.879.629-1.779.629-.896 0-1.483-.204-1.764-.61-.298-.426-.444-1.318-.444-2.68zm.582 0c0 1.149.095 1.879.283 2.193.188.312.637.468 1.349.468.708 0 1.155-.156 1.34-.468.185-.314.277-1.044.277-2.193 0-1.161-.089-1.896-.271-2.205-.179-.311-.628-.464-1.347-.464-.717 0-1.168.154-1.353.468-.184.313-.278 1.049-.278 2.201z"/></svg>