<svg xmlns="http://www.w3.org/2000/svg" viewBox="0 0 212.581 52.9"><path fill-rule="evenodd" clip-rule="evenodd" d="M92.28 16.06c.556-.456 1.091-.763 1.619-.92.526-.15.99-.229 1.396-.229.81 0 1.482.134 2.014.403.531.268.955.637 1.265 1.102.31.463.527 1.012.648 1.643.12.633.183 1.305.183 2.018 0 .738-.08 1.426-.245 2.059-.163.631-.418 1.175-.768 1.631-.354.458-.813.82-1.388 1.081-.572.262-1.263.394-2.072.394-.15 0-.333-.007-.547-.021a5.598 5.598 0 01-.678-.078 8.377 8.377 0 01-.708-.162 4.64 4.64 0 01-.659-.242v4.539h-3.831V15.093h3.573l.078.889.12.078zm1.674 6.496c.174 0 .356-.037.548-.111.187-.072.355-.205.503-.395.147-.188.274-.453.374-.795.1-.343.15-.783.15-1.322 0-.512-.041-.92-.131-1.229-.089-.31-.206-.545-.352-.706-.15-.164-.311-.269-.494-.322s-.374-.08-.575-.08c-.23 0-.502.055-.817.172a3.516 3.516 0 00-.801.392v3.994c.231.122.491.22.779.292.29.073.562.11.816.11zm47.772-8.428c1.754 0 3.308-1.182 4.289-3.006l-1.374-.795c-.788.932-1.804 1.493-2.915 1.493-1.11 0-2.13-.562-2.919-1.493l-1.373.795c.98 1.824 2.537 3.006 4.292 3.006zm-35.747.701c1.132 0 2.023.154 2.686.465.658.31 1.155.702 1.498 1.18.346.479.569 1.008.672 1.596.099.582.148 1.151.148 1.704v.886h-6.354c.012.646.209 1.102.582 1.371.377.27.93.406 1.656.406.497 0 1.031-.058 1.603-.174a17.741 17.741 0 001.606-.393l.725 2.359a7.79 7.79 0 01-2.319.81 13.28 13.28 0 01-2.301.22c-1.089 0-1.984-.14-2.687-.424-.708-.28-1.258-.662-1.664-1.137a4.016 4.016 0 01-.841-1.658 7.897 7.897 0 01-.234-1.945c0-.631.08-1.262.241-1.887a4.51 4.51 0 01.85-1.695c.402-.502.938-.909 1.613-1.219.671-.311 1.514-.465 2.52-.465zm.213 2.32c-.548 0-.931.172-1.143.515a2.589 2.589 0 00-.38 1.181h2.861c-.013-.484-.109-.887-.288-1.211-.179-.324-.531-.485-1.05-.485zm79.612-2.32c1.133 0 2.03.154 2.686.465.658.31 1.162.702 1.505 1.18.344.479.563 1.008.663 1.596.104.582.155 1.151.155 1.704v.886h-6.358c.013.646.208 1.102.587 1.371.375.27.926.406 1.653.406.497 0 1.034-.058 1.606-.174.57-.114 1.104-.244 1.602-.393l.729 2.359a7.869 7.869 0 01-2.324.81c-.818.145-1.588.22-2.301.22-1.086 0-1.981-.14-2.686-.424-.703-.28-1.259-.662-1.665-1.137a4.04 4.04 0 01-.841-1.658 8.092 8.092 0 01-.229-1.945c0-.631.079-1.262.236-1.887.162-.623.45-1.189.851-1.695.405-.502.941-.909 1.613-1.219.67-.311 1.513-.465 2.518-.465zm.214 2.32c-.548 0-.928.172-1.143.515a2.622 2.622 0 00-.377 1.181h2.865c-.017-.484-.113-.887-.295-1.211-.177-.324-.529-.485-1.05-.485zm10.037 2.946c0 .768.148 1.33.436 1.685.287.355.813.534 1.563.534.431 0 .86-.039 1.29-.12a15.2 15.2 0 001.232-.283c.107.433.217.859.32 1.28.11.426.217.85.322 1.28a7.509 7.509 0 01-1.896.597c-.698.129-1.398.191-2.099.191-1.051 0-1.902-.138-2.562-.413-.657-.274-1.175-.647-1.553-1.12a3.94 3.94 0 01-.766-1.624 8.91 8.91 0 01-.204-1.925c0-.634.072-1.266.225-1.898.144-.631.414-1.2.798-1.705.379-.504.911-.914 1.59-1.229.681-.315 1.554-.475 2.614-.475.419 0 .92.03 1.502.093.586.06 1.181.184 1.783.371l-.483 2.664a9.242 9.242 0 00-1.107-.164c-.35-.025-.659-.039-.928-.039-.712 0-1.236.2-1.572.598-.337.393-.505.96-.505 1.702zm-65.307-5.024l-3.315 5.195h-.122v-5.195h-3.878v9.986h3.698l3.311-5.125h.123v5.125h3.885v-9.986h-3.702zm12.797 0l-3.317 5.195h-.119v-5.195h-3.884v9.986h3.702l3.311-5.125h.127v5.125h3.877v-9.986h-3.697zm69.036 0h-10.655v2.523h3.293v7.463h3.926v-7.463h2.977l.459-2.523zm-90.073 0h-10.656v2.523h3.291v7.463h3.933v-7.463h2.972l.46-2.523zm49.601.989c.552-.456 1.093-.763 1.62-.92.523-.15.991-.229 1.396-.229.807 0 1.479.134 2.012.403.532.268.955.637 1.264 1.102.311.463.525 1.012.65 1.643.119.633.182 1.305.182 2.018 0 .738-.082 1.426-.244 2.059-.162.631-.416 1.175-.767 1.631-.354.458-.815.82-1.392 1.081-.57.262-1.262.394-2.072.394a8.59 8.59 0 01-.544-.021 5.651 5.651 0 01-.677-.078 7.997 7.997 0 01-.71-.162 4.51 4.51 0 01-.656-.242v4.539h-3.833V15.093h3.571l.081.889.119.078zm1.676 6.496c.174 0 .357-.037.543-.111.189-.072.355-.205.504-.395.15-.188.274-.453.374-.795.101-.343.15-.783.15-1.322 0-.512-.042-.92-.132-1.229-.085-.31-.204-.545-.351-.706a1.053 1.053 0 00-.494-.322 2.014 2.014 0 00-.576-.08c-.228 0-.501.055-.817.172-.317.113-.58.244-.795.392v3.994c.227.122.485.22.775.292.29.073.563.11.819.11zm-19.209-8.655h4.359v11.156h3.957V13.901h3.992l.5-2.766h-12.809v2.766h.001zm-79.827 0h4.359v11.156h3.954V13.901h3.99l.502-2.766H74.749v2.766z"/><g fill-rule="evenodd" clip-rule="evenodd"><path fill="#ED1847" d="M49.43 21.575l8.44-4.871L28.939 0 0 16.708l8.441 4.871L28.939 9.743z"/><path fill="#00B9F2" d="M8.441 31.325L0 36.196 28.932 52.9 57.87 36.191l-8.44-4.872-20.498 11.836z"/><path fill="#A5A5A5" d="M8.441 21.579L0 26.454l8.441 4.871 8.439-4.871zm40.989-.004l-8.438 4.871 8.438 4.873 8.44-4.873z"/><path d="M49.43 21.575L28.939 9.743 8.441 21.579l8.439 4.875-8.439 4.871 20.491 11.83L49.43 31.319l-8.438-4.873z"/><path fill="#FFF" d="M32.619 26.449a5.565 5.565 0 001.887-4.177 5.568 5.568 0 00-11.138 0h2.787a2.78 2.78 0 012.781-2.783 2.785 2.785 0 010 5.568v2.784a2.784 2.784 0 010 5.567 2.78 2.78 0 01-2.781-2.785h-2.787a5.567 5.567 0 005.568 5.57 5.57 5.57 0 005.57-5.57 5.565 5.565 0 00-1.887-4.174z"/></g><path d="M80.799 36.442c.315 0 .608.023.873.07.256.047.493.106.698.176l-.178.734a3.648 3.648 0 00-.678-.154 4.551 4.551 0 00-.601-.041c-.618 0-1.08.205-1.384.616-.311.408-.46.993-.46 1.751 0 .348.025.662.085.943.061.285.16.527.298.729.146.197.336.354.578.461.239.108.542.164.912.164a7.27 7.27 0 00.651-.053c.13-.02.265-.038.397-.062.136-.024.264-.056.378-.087l.179.697a2.802 2.802 0 01-.396.121 7.839 7.839 0 01-.462.094 5.412 5.412 0 01-.942.084c-.52 0-.953-.074-1.3-.23a2.156 2.156 0 01-.841-.639c-.209-.273-.36-.6-.452-.973a5.028 5.028 0 01-.016-2.295c.081-.372.229-.718.44-1.03.207-.311.491-.57.85-.771.361-.204.816-.305 1.371-.305zm3.683 2.535h-1.504v-.698h3.957v.698h-1.492v3.629h-.961v-3.629zm3.991-.273c.195-.155.406-.271.632-.355a1.94 1.94 0 01.665-.121c.318 0 .585.056.796.17.213.115.386.273.509.475.129.197.217.43.271.69.055.263.082.546.082.843 0 .32-.036.617-.1.896a2.136 2.136 0 01-.308.724 1.48 1.48 0 01-.553.484 1.75 1.75 0 01-.821.178c-.082 0-.173-.006-.273-.012-.1-.01-.203-.025-.31-.046a2.212 2.212 0 01-.314-.085 1.205 1.205 0 01-.291-.14v2.04h-.963v-6.166h.917l.019.389.042.036zm.973 3.285c.128 0 .257-.027.378-.076a.786.786 0 00.329-.26c.093-.127.171-.292.225-.502.057-.209.083-.469.083-.785 0-.274-.022-.506-.069-.69a1.099 1.099 0 00-.205-.433.762.762 0 00-.312-.227 1.11 1.11 0 00-.666-.029c-.096.022-.19.053-.287.093a1.711 1.711 0 00-.261.128.907.907 0 00-.198.141v2.364a.93.93 0 00.187.104 2.236 2.236 0 00.523.149c.093.016.184.023.273.023zm6.852-1.538c0 .29-.031.566-.104.835a2.018 2.018 0 01-.347.715 1.71 1.71 0 01-.644.498c-.267.125-.594.188-.99.188-.376 0-.69-.06-.944-.178a1.587 1.587 0 01-.612-.479 1.926 1.926 0 01-.338-.712 3.55 3.55 0 01.012-1.71c.08-.272.199-.516.364-.723.163-.21.378-.378.642-.504.259-.126.579-.19.949-.19.373 0 .696.064.953.19.26.126.464.294.624.504.153.207.262.45.333.723.071.277.102.555.102.843zm-1.007.009a4.71 4.71 0 00-.034-.551 1.54 1.54 0 00-.146-.504.925.925 0 00-.306-.367.894.894 0 00-.518-.143.917.917 0 00-.853.499c-.082.153-.135.32-.168.504a3.422 3.422 0 00-.049.562c0 .208.014.398.041.584.025.182.08.342.152.482a.866.866 0 00.328.33c.141.082.322.122.549.122a.924.924 0 00.514-.13.938.938 0 00.301-.347c.072-.141.123-.304.15-.485s.039-.367.039-.556zm4.762 2.145v-3.072h-.037l-.547.892c-.081.125-.189.295-.321.508-.134.218-.271.432-.411.656-.144.221-.272.424-.391.611a8.558 8.558 0 01-.273.405h-.907v-4.319h.962v3.039h.044c.068-.115.137-.232.209-.348.063-.115.139-.231.211-.348a52.91 52.91 0 00.815-1.259c.132-.21.258-.407.373-.593l.311-.492h.925v4.319h-.963zm5.988 0v-2.888h-.044l-.353.762c-.138.283-.275.557-.413.824-.137.268-.272.549-.409.844h-.61c-.052-.105-.112-.232-.189-.375a24.06 24.06 0 00-.229-.447c-.079-.152-.156-.304-.238-.459-.082-.152-.152-.288-.215-.406-.097-.182-.18-.346-.252-.492l-.147-.292h-.034v2.93h-.926v-4.319h1.049l.962 1.838c.119.227.221.431.309.616l.194.401h.037l.191-.408c.096-.203.209-.438.338-.697.055-.119.123-.266.213-.441.089-.177.174-.354.264-.529.086-.176.168-.338.244-.48.074-.145.126-.242.154-.299h1.014v4.319h-.91zm5.863-2.172c0 .225.021.426.06.611.038.182.101.339.185.467.093.13.213.234.359.307.146.074.331.107.554.107.22 0 .423-.021.614-.066.189-.041.39-.105.595-.189l.212.646a2.97 2.97 0 01-.71.256c-.272.065-.56.098-.852.098-.382 0-.702-.057-.957-.17a1.478 1.478 0 01-.614-.457 1.801 1.801 0 01-.329-.686 3.7 3.7 0 01-.011-1.629c.054-.27.157-.52.309-.746.146-.226.357-.416.621-.564.265-.152.611-.227 1.036-.227.187 0 .389.015.606.041.221.024.445.083.682.172l-.179.688a2.457 2.457 0 00-.542-.117 4.286 4.286 0 00-.446-.023c-.389 0-.681.134-.892.398-.196.263-.301.625-.301 1.083zm8.006-2.815l-1.277.104v-.652l1.359-.336h.865v5.872h-.947v-4.988zm6.476 2.41a3.25 3.25 0 01-.67.295c-.231.074-.48.109-.743.109a2.21 2.21 0 01-.687-.105 1.51 1.51 0 01-.573-.329 1.534 1.534 0 01-.38-.569 2.117 2.117 0 01-.146-.832c0-.305.051-.58.153-.822.1-.239.241-.444.424-.607.183-.166.403-.293.655-.381.251-.088.53-.133.832-.133.408 0 .747.074 1.023.217.272.145.492.34.658.59.167.245.282.535.351.867.071.334.109.688.109 1.064 0 .473-.051.905-.143 1.303-.092.398-.244.74-.443 1.033-.207.294-.459.52-.764.685-.306.165-.679.247-1.105.247-.321 0-.599-.025-.844-.079a2.79 2.79 0 01-.528-.161l.206-.68c.213.085.416.138.618.16.2.024.37.036.501.036.297 0 .541-.069.734-.206.197-.137.35-.305.463-.501.115-.196.199-.401.257-.62.053-.218.081-.402.095-.553l-.053-.028zm-1.208-.3a2.25 2.25 0 00.887-.195c.107-.048.194-.093.252-.139a.488.488 0 01.114-.073v-.178c0-.166-.011-.349-.033-.551a1.717 1.717 0 00-.166-.561 1.198 1.198 0 00-.363-.432c-.156-.121-.362-.178-.633-.178-.368 0-.648.104-.843.313-.187.211-.285.488-.285.836 0 .164.016.318.05.458a.95.95 0 00.182.365c.08.106.189.188.323.245.136.06.306.09.515.09zm5.392-.751c.2.005.409.038.617.097.215.059.408.156.584.292.172.138.312.315.428.54.106.223.164.498.164.828 0 .332-.061.619-.175.863a1.822 1.822 0 01-.495.607 2.023 2.023 0 01-.73.361c-.277.08-.58.121-.896.121-.314-.012-.633-.045-.944-.098s-.598-.143-.866-.273l.241-.67c.335.1.613.17.845.211a3.3 3.3 0 00.604.061c.446 0 .802-.096 1.063-.286.263-.191.393-.489.393-.897 0-.336-.122-.594-.374-.781-.246-.186-.628-.276-1.145-.276a4.31 4.31 0 00-.229.007c-.076.006-.16.016-.238.028-.023-.089-.047-.178-.066-.265a2.773 2.773 0 00-.079-.265l1.645-1.634-.023-.074h-2.383v-.74h3.582l.131.591-1.667 1.609.013.043zm4.498-1.359l-1.28.104v-.652l1.36-.336h.864v5.872h-.944v-4.988zm6.488 4.987v-4.327h3.231v.698h-2.271v3.629h-.96zm7.654-2.154a3.2 3.2 0 01-.103.835 2.02 2.02 0 01-.348.715c-.162.21-.38.377-.645.498-.262.125-.592.188-.985.188-.378 0-.694-.06-.951-.178a1.593 1.593 0 01-.607-.479 1.885 1.885 0 01-.341-.712 3.706 3.706 0 01-.1-.857c0-.295.041-.575.115-.853a2.06 2.06 0 01.363-.723c.164-.21.378-.378.641-.504.262-.126.58-.19.945-.19.383 0 .694.064.957.19.259.126.465.294.621.504.16.207.268.45.337.723.07.277.101.555.101.843zm-1.003.009c0-.182-.017-.363-.04-.551a1.49 1.49 0 00-.142-.504.985.985 0 00-.313-.367c-.129-.094-.301-.143-.518-.143a.924.924 0 00-.521.14 1.001 1.001 0 00-.331.359c-.078.153-.133.32-.169.504-.03.188-.049.372-.049.562 0 .208.017.398.047.584.023.182.077.342.149.482.078.137.186.248.328.33s.325.122.545.122c.217 0 .387-.043.515-.13a.977.977 0 00.309-.347c.072-.141.119-.304.146-.485s.044-.367.044-.556zm5.673 1.476l.454.01v1.915h-.727v-1.255h-3.224v1.248h-.742v-1.908l.403-.01c.139-.128.25-.28.336-.452.088-.168.153-.371.204-.596.051-.229.09-.484.11-.771.03-.287.055-.612.081-.979l.05-.859h3.064l-.009 3.657zm-2.24-2.966l-.017.361c-.014.345-.039.646-.059.918a5.599 5.599 0 01-.096.723 2.539 2.539 0 01-.15.552 1.47 1.47 0 01-.243.412h1.879V38.97h-1.314zm7.005 2.966h.572l.054.548a1.689 1.689 0 01-.429.146 2.385 2.385 0 01-.465.048.854.854 0 01-.438-.097c-.108-.064-.167-.211-.177-.433l-.02-.018a2.535 2.535 0 01-.461.318 2.1 2.1 0 01-.427.166 1.552 1.552 0 01-.353.063c-.103.008-.189.01-.254.01-.259 0-.472-.041-.637-.124a1.075 1.075 0 01-.397-.313 1.156 1.156 0 01-.206-.406 1.597 1.597 0 01-.059-.403c0-.206.044-.387.138-.544.084-.162.207-.295.366-.404a1.94 1.94 0 01.541-.253 3.01 3.01 0 01.67-.103l1.055-.074v-.236c0-.318-.066-.543-.186-.676s-.348-.199-.691-.199a4.606 4.606 0 00-1.35.232c-.031-.102-.059-.205-.094-.31a4.48 4.48 0 00-.086-.309c.25-.114.53-.199.847-.263.321-.062.625-.092.91-.092.244 0 .46.026.657.074.193.052.357.134.494.247.135.113.239.268.312.457.074.188.112.416.112.688v2.26zm-1.926-1.262c-.258.018-.446.083-.571.196a.612.612 0 00-.182.465c0 .225.059.393.165.508.108.115.287.174.533.174.166 0 .341-.045.526-.127.18-.088.353-.207.528-.361v-.928l-.999.073z"/></svg>