<?xml version="1.0" encoding="utf-8"?>
<!-- Generator: Adobe Illustrator 16.2.0, SVG Export Plug-In . SVG Version: 6.00 Build 0)  -->
<!DOCTYPE svg PUBLIC "-//W3C//DTD SVG 1.1//EN" "http://www.w3.org/Graphics/SVG/1.1/DTD/svg11.dtd">
<svg version="1.1" id="Layer_1" xmlns="http://www.w3.org/2000/svg" xmlns:xlink="http://www.w3.org/1999/xlink" x="0px" y="0px"
	 width="212.581px" height="52.9px" viewBox="0 0 212.581 52.9" enable-background="new 0 0 212.581 52.9" xml:space="preserve">
<g>
	<path fill-rule="evenodd" clip-rule="evenodd" d="M92.28,16.06c0.556-0.456,1.091-0.763,1.619-0.92
		c0.526-0.15,0.99-0.229,1.396-0.229c0.81,0,1.482,0.134,2.014,0.403c0.531,0.268,0.955,0.637,1.265,1.102
		c0.31,0.463,0.527,1.012,0.648,1.643c0.12,0.633,0.183,1.305,0.183,2.018c0,0.738-0.08,1.426-0.245,2.059
		c-0.163,0.631-0.418,1.175-0.768,1.631c-0.354,0.458-0.813,0.82-1.388,1.081c-0.572,0.262-1.263,0.394-2.072,0.394
		c-0.15,0-0.333-0.007-0.547-0.021c-0.216-0.01-0.444-0.038-0.678-0.078c-0.233-0.043-0.473-0.097-0.708-0.162
		c-0.238-0.068-0.453-0.148-0.659-0.242v4.539h-3.831V15.093h3.573l0.078,0.889L92.28,16.06L92.28,16.06z M93.954,22.556
		L93.954,22.556c0.174,0,0.356-0.037,0.548-0.111c0.187-0.072,0.355-0.205,0.503-0.395c0.147-0.188,0.274-0.453,0.374-0.795
		c0.1-0.343,0.15-0.783,0.15-1.322c0-0.512-0.041-0.92-0.131-1.229c-0.089-0.31-0.206-0.545-0.352-0.706
		c-0.15-0.164-0.311-0.269-0.494-0.322s-0.374-0.08-0.575-0.08c-0.23,0-0.502,0.055-0.817,0.172
		c-0.317,0.113-0.584,0.244-0.801,0.392v3.994c0.231,0.122,0.491,0.22,0.779,0.292C93.428,22.519,93.7,22.556,93.954,22.556
		L93.954,22.556z M141.726,14.128L141.726,14.128c1.754,0,3.308-1.182,4.289-3.006l-1.374-0.795
		c-0.788,0.932-1.804,1.493-2.915,1.493c-1.11,0-2.13-0.562-2.919-1.493l-1.373,0.795C138.414,12.946,139.971,14.128,141.726,14.128
		L141.726,14.128z M105.979,14.829L105.979,14.829c1.132,0,2.023,0.154,2.686,0.465c0.658,0.31,1.155,0.702,1.498,1.18
		c0.346,0.479,0.569,1.008,0.672,1.596c0.099,0.582,0.148,1.151,0.148,1.704v0.886h-6.354c0.012,0.646,0.209,1.102,0.582,1.371
		c0.377,0.27,0.93,0.406,1.656,0.406c0.497,0,1.031-0.058,1.603-0.174c0.571-0.114,1.108-0.244,1.606-0.393l0.725,2.359
		c-0.725,0.391-1.496,0.66-2.319,0.81c-0.821,0.145-1.587,0.22-2.301,0.22c-1.089,0-1.984-0.14-2.687-0.424
		c-0.708-0.28-1.258-0.662-1.664-1.137c-0.404-0.479-0.688-1.031-0.841-1.658c-0.158-0.624-0.234-1.273-0.234-1.945
		c0-0.631,0.08-1.262,0.241-1.887c0.164-0.623,0.444-1.189,0.85-1.695c0.402-0.502,0.938-0.909,1.613-1.219
		C104.13,14.983,104.973,14.829,105.979,14.829L105.979,14.829z M106.192,17.149L106.192,17.149c-0.548,0-0.931,0.172-1.143,0.515
		c-0.217,0.343-0.341,0.735-0.38,1.181h2.861c-0.013-0.484-0.109-0.887-0.288-1.211C107.063,17.31,106.711,17.149,106.192,17.149
		L106.192,17.149z M185.804,14.829L185.804,14.829c1.133,0,2.03,0.154,2.686,0.465c0.658,0.31,1.162,0.702,1.505,1.18
		c0.344,0.479,0.563,1.008,0.663,1.596c0.104,0.582,0.155,1.151,0.155,1.704v0.886h-6.358c0.013,0.646,0.208,1.102,0.587,1.371
		c0.375,0.27,0.926,0.406,1.653,0.406c0.497,0,1.034-0.058,1.606-0.174c0.57-0.114,1.104-0.244,1.602-0.393l0.729,2.359
		c-0.729,0.391-1.502,0.66-2.324,0.81c-0.818,0.145-1.588,0.22-2.301,0.22c-1.086,0-1.981-0.14-2.686-0.424
		c-0.703-0.28-1.259-0.662-1.665-1.137c-0.406-0.479-0.684-1.031-0.841-1.658c-0.154-0.624-0.229-1.273-0.229-1.945
		c0-0.631,0.079-1.262,0.236-1.887c0.162-0.623,0.45-1.189,0.851-1.695c0.405-0.502,0.941-0.909,1.613-1.219
		C183.956,14.983,184.799,14.829,185.804,14.829L185.804,14.829z M186.018,17.149L186.018,17.149c-0.548,0-0.928,0.172-1.143,0.515
		c-0.213,0.343-0.339,0.735-0.377,1.181h2.865c-0.017-0.484-0.113-0.887-0.295-1.211C186.891,17.31,186.539,17.149,186.018,17.149
		L186.018,17.149z M196.055,20.095L196.055,20.095c0,0.768,0.148,1.33,0.436,1.685c0.287,0.355,0.813,0.534,1.563,0.534
		c0.431,0,0.86-0.039,1.29-0.12c0.429-0.081,0.842-0.175,1.232-0.283c0.107,0.433,0.217,0.859,0.32,1.28
		c0.11,0.426,0.217,0.85,0.322,1.28c-0.566,0.271-1.195,0.468-1.896,0.597c-0.698,0.129-1.398,0.191-2.099,0.191
		c-1.051,0-1.902-0.138-2.562-0.413c-0.657-0.274-1.175-0.647-1.553-1.12c-0.374-0.471-0.631-1.012-0.766-1.624
		c-0.135-0.611-0.204-1.254-0.204-1.925c0-0.634,0.072-1.266,0.225-1.898c0.144-0.631,0.414-1.2,0.798-1.705
		c0.379-0.504,0.911-0.914,1.59-1.229c0.681-0.315,1.554-0.475,2.614-0.475c0.419,0,0.92,0.03,1.502,0.093
		c0.586,0.06,1.181,0.184,1.783,0.371l-0.483,2.664c-0.388-0.08-0.755-0.135-1.107-0.164c-0.35-0.025-0.659-0.039-0.928-0.039
		c-0.712,0-1.236,0.2-1.572,0.598C196.223,18.786,196.055,19.353,196.055,20.095L196.055,20.095z M130.748,15.071L130.748,15.071
		l-3.315,5.195h-0.122v-5.195h-3.878v9.986h3.698l3.311-5.125h0.123v5.125h3.885v-9.986H130.748L130.748,15.071z M143.545,15.071
		L143.545,15.071l-3.317,5.195h-0.119v-5.195h-3.884v9.986h3.702l3.311-5.125h0.127v5.125h3.877v-9.986H143.545L143.545,15.071z
		 M212.581,15.071L212.581,15.071h-10.655v2.523h3.293v7.463h3.926v-7.463h2.977L212.581,15.071L212.581,15.071z M122.508,15.071
		L122.508,15.071h-10.656v2.523h3.291v7.463h3.933v-7.463h2.972L122.508,15.071L122.508,15.071z M172.109,16.06L172.109,16.06
		c0.552-0.456,1.093-0.763,1.62-0.92c0.523-0.15,0.991-0.229,1.396-0.229c0.807,0,1.479,0.134,2.012,0.403
		c0.532,0.268,0.955,0.637,1.264,1.102c0.311,0.463,0.525,1.012,0.65,1.643c0.119,0.633,0.182,1.305,0.182,2.018
		c0,0.738-0.082,1.426-0.244,2.059c-0.162,0.631-0.416,1.175-0.767,1.631c-0.354,0.458-0.815,0.82-1.392,1.081
		c-0.57,0.262-1.262,0.394-2.072,0.394c-0.146,0-0.331-0.007-0.544-0.021c-0.216-0.01-0.44-0.038-0.677-0.078
		c-0.238-0.043-0.475-0.097-0.71-0.162c-0.234-0.068-0.456-0.148-0.656-0.242v4.539h-3.833V15.093h3.571l0.081,0.889L172.109,16.06
		L172.109,16.06z M173.785,22.556L173.785,22.556c0.174,0,0.357-0.037,0.543-0.111c0.189-0.072,0.355-0.205,0.504-0.395
		c0.15-0.188,0.274-0.453,0.374-0.795c0.101-0.343,0.15-0.783,0.15-1.322c0-0.512-0.042-0.92-0.132-1.229
		c-0.085-0.31-0.204-0.545-0.351-0.706c-0.146-0.164-0.313-0.269-0.494-0.322c-0.182-0.054-0.374-0.08-0.576-0.08
		c-0.228,0-0.501,0.055-0.817,0.172c-0.317,0.113-0.58,0.244-0.795,0.392v3.994c0.227,0.122,0.485,0.22,0.775,0.292
		C173.256,22.519,173.529,22.556,173.785,22.556L173.785,22.556z M154.576,13.901L154.576,13.901h4.359v11.156h3.957V13.901h3.992
		l0.5-2.766h-12.809V13.901L154.576,13.901z M74.749,13.901L74.749,13.901h4.359v11.156h3.954V13.901h3.99l0.502-2.766H74.749
		V13.901z"/>
	<g>
		<g>
			<polygon fill-rule="evenodd" clip-rule="evenodd" fill="#ED1847" points="49.43,21.575 57.87,16.704 28.939,0 0,16.708 
				8.441,21.579 28.939,9.743 			"/>
			<polygon fill-rule="evenodd" clip-rule="evenodd" fill="#00B9F2" points="8.441,31.325 0,36.196 28.932,52.9 57.87,36.191 
				49.43,31.319 28.932,43.155 			"/>
			<polygon fill-rule="evenodd" clip-rule="evenodd" fill="#A5A5A5" points="8.441,21.579 0,26.454 8.441,31.325 16.88,26.454 			
				"/>
			<polygon fill-rule="evenodd" clip-rule="evenodd" fill="#A5A5A5" points="49.43,21.575 40.992,26.446 49.43,31.319 57.87,26.446 
							"/>
			<polygon fill-rule="evenodd" clip-rule="evenodd" points="49.43,21.575 28.939,9.743 8.441,21.579 16.88,26.454 8.441,31.325 
				28.932,43.155 49.43,31.319 40.992,26.446 			"/>
		</g>
		<path fill-rule="evenodd" clip-rule="evenodd" fill="#FFFFFF" d="M32.619,26.449c1.154-1.021,1.887-2.513,1.887-4.177
			c0-3.074-2.496-5.568-5.57-5.568c-3.076,0-5.568,2.494-5.568,5.568h2.787c0-1.535,1.241-2.783,2.781-2.783
			c1.537,0,2.784,1.248,2.784,2.783c0,1.537-1.247,2.783-2.784,2.785l0,0v2.784l0,0c1.537,0,2.784,1.249,2.784,2.782
			c0,1.539-1.247,2.785-2.784,2.785c-1.54,0-2.781-1.246-2.781-2.785h-2.787c0,3.078,2.492,5.57,5.568,5.57
			c3.074,0,5.57-2.492,5.57-5.57C34.506,28.962,33.773,27.471,32.619,26.449z"/>
	</g>
	<path d="M80.799,36.442c0.315,0,0.608,0.023,0.873,0.07c0.256,0.047,0.493,0.106,0.698,0.176l-0.178,0.734
		c-0.233-0.077-0.461-0.126-0.678-0.154c-0.218-0.029-0.418-0.041-0.601-0.041c-0.618,0-1.08,0.205-1.384,0.616
		c-0.311,0.408-0.46,0.993-0.46,1.751c0,0.348,0.025,0.662,0.085,0.943c0.061,0.285,0.16,0.527,0.298,0.729
		c0.146,0.197,0.336,0.354,0.578,0.461c0.239,0.108,0.542,0.164,0.912,0.164c0.072,0,0.169-0.002,0.285-0.015
		c0.112-0.009,0.237-0.021,0.366-0.038c0.13-0.02,0.265-0.038,0.397-0.062c0.136-0.024,0.264-0.056,0.378-0.087l0.179,0.697
		c-0.121,0.047-0.251,0.088-0.396,0.121c-0.146,0.035-0.303,0.066-0.462,0.094c-0.157,0.026-0.319,0.047-0.48,0.063
		c-0.161,0.014-0.319,0.021-0.462,0.021c-0.52,0-0.953-0.074-1.3-0.23c-0.348-0.154-0.627-0.367-0.841-0.639
		c-0.209-0.273-0.36-0.6-0.452-0.973c-0.094-0.372-0.14-0.783-0.14-1.231c0-0.335,0.042-0.692,0.124-1.064
		c0.081-0.372,0.229-0.718,0.44-1.03c0.207-0.311,0.491-0.57,0.85-0.771C79.789,36.543,80.244,36.442,80.799,36.442z"/>
	<path d="M84.482,38.977h-1.504v-0.698h3.957v0.698h-1.492v3.629h-0.961V38.977z"/>
	<path d="M88.473,38.704c0.195-0.155,0.406-0.271,0.632-0.355c0.226-0.082,0.448-0.121,0.665-0.121c0.318,0,0.585,0.056,0.796,0.17
		c0.213,0.115,0.386,0.273,0.509,0.475c0.129,0.197,0.217,0.43,0.271,0.69c0.055,0.263,0.082,0.546,0.082,0.843
		c0,0.32-0.036,0.617-0.1,0.896c-0.065,0.277-0.167,0.517-0.308,0.724c-0.143,0.206-0.324,0.367-0.553,0.484
		c-0.226,0.118-0.498,0.178-0.821,0.178c-0.082,0-0.173-0.006-0.273-0.012c-0.1-0.01-0.203-0.025-0.31-0.046
		c-0.105-0.02-0.211-0.049-0.314-0.085c-0.105-0.035-0.205-0.082-0.291-0.14v2.04h-0.963v-6.166h0.917l0.019,0.389L88.473,38.704z
		 M89.446,41.989c0.128,0,0.257-0.027,0.378-0.076c0.125-0.051,0.234-0.136,0.329-0.26c0.093-0.127,0.171-0.292,0.225-0.502
		c0.057-0.209,0.083-0.469,0.083-0.785c0-0.274-0.022-0.506-0.069-0.69c-0.049-0.183-0.115-0.327-0.205-0.433
		c-0.088-0.105-0.194-0.182-0.312-0.227c-0.119-0.043-0.252-0.066-0.396-0.066c-0.082,0-0.17,0.012-0.27,0.037
		c-0.096,0.022-0.19,0.053-0.287,0.093c-0.095,0.038-0.181,0.079-0.261,0.128c-0.088,0.049-0.15,0.094-0.198,0.141v2.364
		c0.048,0.036,0.109,0.07,0.187,0.104c0.076,0.033,0.158,0.06,0.248,0.087c0.089,0.025,0.183,0.047,0.275,0.062
		C89.266,41.982,89.357,41.989,89.446,41.989z"/>
	<path d="M96.298,40.451c0,0.29-0.031,0.566-0.104,0.835c-0.073,0.271-0.188,0.508-0.347,0.715c-0.164,0.21-0.381,0.377-0.644,0.498
		c-0.267,0.125-0.594,0.188-0.99,0.188c-0.376,0-0.69-0.06-0.944-0.178c-0.253-0.117-0.458-0.276-0.612-0.479
		c-0.157-0.204-0.268-0.438-0.338-0.712c-0.067-0.271-0.099-0.555-0.099-0.857c0-0.295,0.037-0.575,0.111-0.853
		c0.08-0.272,0.199-0.516,0.364-0.723c0.163-0.21,0.378-0.378,0.642-0.504c0.259-0.126,0.579-0.19,0.949-0.19
		c0.373,0,0.696,0.064,0.953,0.19c0.26,0.126,0.464,0.294,0.624,0.504c0.153,0.207,0.262,0.45,0.333,0.723
		C96.267,39.885,96.298,40.163,96.298,40.451z M95.291,40.46c0-0.182-0.012-0.363-0.034-0.551c-0.024-0.186-0.07-0.354-0.146-0.504
		c-0.069-0.148-0.173-0.273-0.306-0.367c-0.137-0.094-0.309-0.143-0.518-0.143c-0.214,0-0.391,0.049-0.524,0.14
		c-0.139,0.092-0.249,0.211-0.329,0.359c-0.082,0.153-0.135,0.32-0.168,0.504c-0.031,0.188-0.049,0.372-0.049,0.562
		c0,0.208,0.014,0.398,0.041,0.584c0.025,0.182,0.08,0.342,0.152,0.482c0.077,0.137,0.186,0.248,0.328,0.33
		c0.141,0.082,0.322,0.122,0.549,0.122c0.209,0,0.381-0.043,0.514-0.13c0.126-0.09,0.229-0.203,0.301-0.347
		c0.072-0.141,0.123-0.304,0.15-0.485S95.291,40.649,95.291,40.46z"/>
	<path d="M100.053,42.605v-3.072h-0.037l-0.547,0.892c-0.081,0.125-0.189,0.295-0.321,0.508c-0.134,0.218-0.271,0.432-0.411,0.656
		c-0.144,0.221-0.272,0.424-0.391,0.611c-0.122,0.189-0.213,0.324-0.273,0.405h-0.907v-4.319h0.962v3.039h0.044
		c0.068-0.115,0.137-0.232,0.209-0.348c0.063-0.115,0.139-0.231,0.211-0.348c0.13-0.201,0.265-0.409,0.409-0.623
		c0.14-0.215,0.276-0.43,0.406-0.636c0.132-0.21,0.258-0.407,0.373-0.593c0.118-0.186,0.221-0.35,0.311-0.492h0.925v4.319H100.053z"
		/>
	<path d="M106.041,42.605v-2.888h-0.044l-0.353,0.762c-0.138,0.283-0.275,0.557-0.413,0.824c-0.137,0.268-0.272,0.549-0.409,0.844
		h-0.61c-0.052-0.105-0.112-0.232-0.189-0.375c-0.073-0.146-0.149-0.295-0.229-0.447c-0.079-0.152-0.156-0.304-0.238-0.459
		c-0.082-0.152-0.152-0.288-0.215-0.406c-0.097-0.182-0.18-0.346-0.252-0.492c-0.075-0.148-0.124-0.246-0.147-0.292h-0.034v2.93
		h-0.926v-4.319h1.049l0.962,1.838c0.119,0.227,0.221,0.431,0.309,0.616c0.089,0.184,0.155,0.32,0.194,0.401h0.037
		c0.031-0.066,0.094-0.199,0.191-0.408c0.096-0.203,0.209-0.438,0.338-0.697c0.055-0.119,0.123-0.266,0.213-0.441
		c0.089-0.177,0.174-0.354,0.264-0.529c0.086-0.176,0.168-0.338,0.244-0.48c0.074-0.145,0.126-0.242,0.154-0.299h1.014v4.319
		H106.041z"/>
	<path d="M111.904,40.433c0,0.225,0.021,0.426,0.06,0.611c0.038,0.182,0.101,0.339,0.185,0.467c0.093,0.13,0.213,0.234,0.359,0.307
		c0.146,0.074,0.331,0.107,0.554,0.107c0.22,0,0.423-0.021,0.614-0.066c0.189-0.041,0.39-0.105,0.595-0.189l0.212,0.646
		c-0.199,0.105-0.436,0.192-0.71,0.256c-0.272,0.065-0.56,0.098-0.852,0.098c-0.382,0-0.702-0.057-0.957-0.17
		c-0.26-0.109-0.462-0.261-0.614-0.457c-0.153-0.193-0.263-0.424-0.329-0.686c-0.064-0.268-0.097-0.556-0.097-0.859
		c0-0.242,0.027-0.499,0.086-0.77c0.054-0.27,0.157-0.52,0.309-0.746c0.146-0.226,0.357-0.416,0.621-0.564
		c0.265-0.152,0.611-0.227,1.036-0.227c0.187,0,0.389,0.015,0.606,0.041c0.221,0.024,0.445,0.083,0.682,0.172l-0.179,0.688
		c-0.198-0.063-0.378-0.104-0.542-0.117c-0.163-0.017-0.312-0.023-0.446-0.023c-0.389,0-0.681,0.134-0.892,0.398
		C112.009,39.613,111.904,39.975,111.904,40.433z"/>
	<path d="M119.91,37.618l-1.277,0.104v-0.652l1.359-0.336h0.865v5.872h-0.947V37.618z"/>
	<path d="M126.386,40.028c-0.214,0.123-0.435,0.223-0.67,0.295c-0.231,0.074-0.48,0.109-0.743,0.109
		c-0.242,0-0.472-0.035-0.687-0.105c-0.222-0.07-0.411-0.181-0.573-0.329c-0.163-0.149-0.288-0.341-0.38-0.569
		c-0.098-0.229-0.146-0.508-0.146-0.832c0-0.305,0.051-0.58,0.153-0.822c0.1-0.239,0.241-0.444,0.424-0.607
		c0.183-0.166,0.403-0.293,0.655-0.381c0.251-0.088,0.53-0.133,0.832-0.133c0.408,0,0.747,0.074,1.023,0.217
		c0.272,0.145,0.492,0.34,0.658,0.59c0.167,0.245,0.282,0.535,0.351,0.867c0.071,0.334,0.109,0.688,0.109,1.064
		c0,0.473-0.051,0.905-0.143,1.303c-0.092,0.398-0.244,0.74-0.443,1.033c-0.207,0.294-0.459,0.52-0.764,0.685
		c-0.306,0.165-0.679,0.247-1.105,0.247c-0.321,0-0.599-0.025-0.844-0.079c-0.236-0.053-0.414-0.108-0.528-0.161l0.206-0.68
		c0.213,0.085,0.416,0.138,0.618,0.16c0.2,0.024,0.37,0.036,0.501,0.036c0.297,0,0.541-0.069,0.734-0.206
		c0.197-0.137,0.35-0.305,0.463-0.501c0.115-0.196,0.199-0.401,0.257-0.62c0.053-0.218,0.081-0.402,0.095-0.553L126.386,40.028z
		 M125.178,39.728c0.183,0,0.356-0.021,0.504-0.063c0.155-0.041,0.279-0.083,0.383-0.132c0.107-0.048,0.194-0.093,0.252-0.139
		c0.057-0.044,0.095-0.067,0.114-0.073v-0.178c0-0.166-0.011-0.349-0.033-0.551c-0.028-0.204-0.078-0.39-0.166-0.561
		c-0.085-0.172-0.206-0.314-0.363-0.432c-0.156-0.121-0.362-0.178-0.633-0.178c-0.368,0-0.648,0.104-0.843,0.313
		c-0.187,0.211-0.285,0.488-0.285,0.836c0,0.164,0.016,0.318,0.05,0.458c0.039,0.142,0.098,0.265,0.182,0.365
		c0.08,0.106,0.189,0.188,0.323,0.245C124.799,39.698,124.969,39.728,125.178,39.728z"/>
	<path d="M130.57,38.977c0.2,0.005,0.409,0.038,0.617,0.097c0.215,0.059,0.408,0.156,0.584,0.292
		c0.172,0.138,0.312,0.315,0.428,0.54c0.106,0.223,0.164,0.498,0.164,0.828c0,0.332-0.061,0.619-0.175,0.863
		c-0.129,0.244-0.288,0.447-0.495,0.607c-0.206,0.164-0.449,0.283-0.73,0.361c-0.277,0.08-0.58,0.121-0.896,0.121
		c-0.314-0.012-0.633-0.045-0.944-0.098s-0.598-0.143-0.866-0.273l0.241-0.67c0.335,0.1,0.613,0.17,0.845,0.211
		c0.221,0.042,0.429,0.061,0.604,0.061c0.446,0,0.802-0.096,1.063-0.286c0.263-0.191,0.393-0.489,0.393-0.897
		c0-0.336-0.122-0.594-0.374-0.781c-0.246-0.186-0.628-0.276-1.145-0.276c-0.079,0-0.152,0.003-0.229,0.007
		c-0.076,0.006-0.16,0.016-0.238,0.028c-0.023-0.089-0.047-0.178-0.066-0.265c-0.023-0.089-0.047-0.178-0.079-0.265l1.645-1.634
		l-0.023-0.074h-2.383v-0.74h3.582l0.131,0.591l-1.667,1.609L130.57,38.977z"/>
	<path d="M135.068,37.618l-1.28,0.104v-0.652l1.36-0.336h0.864v5.872h-0.944V37.618z"/>
	<path d="M141.556,42.605v-4.327h3.231v0.698h-2.271v3.629H141.556z"/>
	<path d="M149.21,40.451c0,0.29-0.031,0.566-0.103,0.835c-0.072,0.271-0.19,0.508-0.348,0.715c-0.162,0.21-0.38,0.377-0.645,0.498
		c-0.262,0.125-0.592,0.188-0.985,0.188c-0.378,0-0.694-0.06-0.951-0.178c-0.25-0.117-0.453-0.276-0.607-0.479
		c-0.159-0.204-0.272-0.438-0.341-0.712c-0.064-0.271-0.1-0.555-0.1-0.857c0-0.295,0.041-0.575,0.115-0.853
		c0.078-0.272,0.198-0.516,0.363-0.723c0.164-0.21,0.378-0.378,0.641-0.504c0.262-0.126,0.58-0.19,0.945-0.19
		c0.383,0,0.694,0.064,0.957,0.19c0.259,0.126,0.465,0.294,0.621,0.504c0.16,0.207,0.268,0.45,0.337,0.723
		C149.179,39.885,149.21,40.163,149.21,40.451z M148.207,40.46c0-0.182-0.017-0.363-0.04-0.551c-0.02-0.186-0.068-0.354-0.142-0.504
		c-0.077-0.148-0.177-0.273-0.313-0.367c-0.129-0.094-0.301-0.143-0.518-0.143c-0.208,0-0.386,0.049-0.521,0.14
		c-0.138,0.092-0.251,0.211-0.331,0.359c-0.078,0.153-0.133,0.32-0.169,0.504c-0.03,0.188-0.049,0.372-0.049,0.562
		c0,0.208,0.017,0.398,0.047,0.584c0.023,0.182,0.077,0.342,0.149,0.482c0.078,0.137,0.186,0.248,0.328,0.33
		s0.325,0.122,0.545,0.122c0.217,0,0.387-0.043,0.515-0.13c0.132-0.09,0.229-0.203,0.309-0.347c0.072-0.141,0.119-0.304,0.146-0.485
		S148.207,40.649,148.207,40.46z"/>
	<path d="M153.88,41.936l0.454,0.01v1.915h-0.727v-1.255h-3.224v1.248h-0.742v-1.908l0.403-0.01c0.139-0.128,0.25-0.28,0.336-0.452
		c0.088-0.168,0.153-0.371,0.204-0.596c0.051-0.229,0.09-0.484,0.11-0.771c0.03-0.287,0.055-0.612,0.081-0.979l0.05-0.859h3.064
		L153.88,41.936z M151.64,38.97l-0.017,0.361c-0.014,0.345-0.039,0.646-0.059,0.918c-0.023,0.267-0.048,0.508-0.096,0.723
		c-0.033,0.213-0.088,0.396-0.15,0.552c-0.062,0.158-0.144,0.294-0.243,0.412h1.879V38.97H151.64z"/>
	<path d="M158.645,41.936h0.572l0.054,0.548c-0.125,0.063-0.266,0.113-0.429,0.146c-0.162,0.032-0.315,0.048-0.465,0.048
		c-0.18,0-0.327-0.031-0.438-0.097c-0.108-0.064-0.167-0.211-0.177-0.433l-0.02-0.018c-0.158,0.136-0.313,0.239-0.461,0.318
		c-0.149,0.076-0.294,0.132-0.427,0.166c-0.132,0.037-0.249,0.059-0.353,0.063c-0.103,0.008-0.189,0.01-0.254,0.01
		c-0.259,0-0.472-0.041-0.637-0.124c-0.166-0.083-0.306-0.187-0.397-0.313c-0.097-0.127-0.167-0.26-0.206-0.406
		c-0.038-0.146-0.059-0.277-0.059-0.403c0-0.206,0.044-0.387,0.138-0.544c0.084-0.162,0.207-0.295,0.366-0.404
		c0.158-0.108,0.336-0.191,0.541-0.253c0.209-0.056,0.431-0.094,0.67-0.103l1.055-0.074v-0.236c0-0.318-0.066-0.543-0.186-0.676
		c-0.12-0.133-0.348-0.199-0.691-0.199c-0.211,0-0.436,0.021-0.674,0.063c-0.24,0.042-0.465,0.098-0.676,0.169
		c-0.031-0.102-0.059-0.205-0.094-0.31c-0.027-0.107-0.053-0.209-0.086-0.309c0.25-0.114,0.53-0.199,0.847-0.263
		c0.321-0.062,0.625-0.092,0.91-0.092c0.244,0,0.46,0.026,0.657,0.074c0.193,0.052,0.357,0.134,0.494,0.247
		c0.135,0.113,0.239,0.268,0.312,0.457c0.074,0.188,0.112,0.416,0.112,0.688V41.936z M156.719,40.674
		c-0.258,0.018-0.446,0.083-0.571,0.196c-0.122,0.117-0.182,0.271-0.182,0.465c0,0.225,0.059,0.393,0.165,0.508
		c0.108,0.115,0.287,0.174,0.533,0.174c0.166,0,0.341-0.045,0.526-0.127c0.18-0.088,0.353-0.207,0.528-0.361v-0.928L156.719,40.674z
		"/>
</g>
</svg>
